<?xml version="1.0" encoding="UTF-8" standalone="no"?>
<!-- Created with Inkscape (http://www.inkscape.org/) -->
<svg
   xmlns:svg="http://www.w3.org/2000/svg"
   xmlns="http://www.w3.org/2000/svg"
   version="1.0"
   width="290.75"
   height="290.7485"
   viewBox="0 0 192.756 192.755"
   id="Layer_1"
   xml:space="preserve"><defs
   id="defs84" />
<g
   transform="translate(0,-4.31665e-6)"
   id="g3">
	<polygon
   points="0,0 192.756,0 192.756,192.755 0,192.755 0,0 "
   style="opacity:1;fill:#002f86;fill-opacity:1;fill-rule:evenodd"
   id="polygon5" />
	<path
   d="M 76.594,125.966 C 76.594,125.966 65.617,124.134 60.373,121.452 C 55.128,118.77 46.166,113.649 46.35,105.475 C 46.591,94.497 61.741,86.533 77.448,81.448 C 98.55,74.62 114.649,70.473 142.578,66.568 C 169.483,62.808 183.924,62.179 183.924,62.179 L 184.253,61.858 L 184.253,60.812 L 180.842,60.866 L 177.274,60.99 L 170.545,61.12 L 154.326,62.585 L 131.804,65.634 L 110.096,69.455 L 99.117,71.974 L 75.944,77.585 L 58.951,84.295 L 49.153,90.84 L 39.153,104.135 L 42.567,119.742 L 60.132,124.623 L 76.594,125.966 L 76.594,125.966 z "
   style="fill:#00afe1;fill-rule:evenodd"
   id="path7" />
	<path
   d="M 179.044,67.239 C 179.044,67.239 163.921,70.105 154.103,72.667 C 144.286,75.232 131.907,78.706 122.759,82.485 C 113.612,86.268 109.28,88.158 109.28,88.158 C 109.28,88.158 108.717,87.67 106.306,86.833 C 103.902,85.994 107.406,83.993 107.406,83.993 L 113.061,81.604 L 139.159,72.913 L 149.772,70.717 L 167.944,67.302 L 176.484,66.265 L 180.386,65.838 L 179.044,67.239 L 179.044,67.239 z "
   style="fill:#00afe1;fill-rule:evenodd"
   id="path9" />
	<path
   d="M 173.147,74.783 C 173.147,74.783 161.522,78.848 154.123,82.263 C 146.723,85.676 137.13,90.312 130.623,94.134 C 124.116,97.956 122.329,99.337 122.329,99.337 C 122.329,99.337 122.255,98.997 120.821,97.122 C 119.388,95.246 122.802,93.629 122.802,93.629 L 136.416,86.816 L 146.421,82.21 L 158.155,77.853 L 166.874,74.987 L 171.447,73.798 L 174.287,73.155 L 173.147,74.783 L 173.147,74.783 z "
   style="fill:#00afe1;fill-rule:evenodd"
   id="path11" />
	<path
   d="M 92.896,97.067 L 79.206,95.325 C 79.206,95.325 78.373,95.279 77.806,94.652 C 77.227,94.022 77.082,93.115 77.082,93.115 L 75.356,85.155 C 75.285,84.761 75.14,84.521 74.927,84.521 C 74.707,84.521 74.565,84.761 74.494,85.155 L 72.766,93.115 C 72.766,93.115 72.623,94.022 72.044,94.652 C 71.477,95.278 70.642,95.325 70.642,95.325 L 56.954,97.067 C 56.542,97.087 56.354,97.301 56.354,97.487 C 56.354,97.675 56.542,97.887 56.954,97.909 L 70.642,99.653 C 70.642,99.653 71.477,99.698 72.044,100.323 C 72.624,100.954 72.766,101.858 72.766,101.858 L 74.494,109.817 C 74.565,110.215 74.707,110.454 74.927,110.454 C 75.14,110.454 75.284,110.216 75.356,109.817 L 77.082,101.858 C 77.082,101.858 77.227,100.954 77.806,100.323 C 78.373,99.698 79.206,99.653 79.206,99.653 L 92.896,97.909 C 93.309,97.888 93.496,97.675 93.496,97.487 C 93.496,97.302 93.309,97.087 92.896,97.067 L 92.896,97.067 z "
   style="fill:#00afe1;fill-rule:evenodd"
   id="path13" />
	<path
   d="M 112.978,94.622 L 107.642,93.943 C 107.642,93.943 107.319,93.927 107.097,93.681 C 106.871,93.435 106.815,93.081 106.815,93.081 L 106.14,89.981 C 106.118,89.824 106.056,89.735 105.973,89.735 C 105.89,89.735 105.834,89.824 105.806,89.981 L 105.131,93.081 C 105.131,93.081 105.076,93.435 104.853,93.681 C 104.627,93.927 104.306,93.943 104.306,93.943 L 98.97,94.622 C 98.808,94.63 98.732,94.714 98.732,94.789 C 98.732,94.86 98.808,94.944 98.97,94.953 L 104.306,95.631 C 104.306,95.631 104.627,95.65 104.853,95.893 C 105.077,96.139 105.131,96.493 105.131,96.493 L 105.806,99.596 C 105.834,99.748 105.89,99.84 105.973,99.84 C 106.056,99.84 106.118,99.748 106.14,99.596 L 106.815,96.493 C 106.815,96.493 106.872,96.139 107.097,95.893 C 107.319,95.649 107.642,95.631 107.642,95.631 L 112.978,94.953 C 113.14,94.944 113.215,94.861 113.215,94.789 C 113.215,94.713 113.14,94.63 112.978,94.622 L 112.978,94.622 z "
   style="fill:#00afe1;fill-rule:evenodd"
   id="path15" />
	<path
   d="M 117.53,104.249 L 112.194,103.567 C 112.194,103.567 111.869,103.549 111.645,103.307 C 111.419,103.061 111.37,102.707 111.37,102.707 L 110.694,99.605 C 110.666,99.453 110.611,99.357 110.526,99.357 C 110.44,99.357 110.383,99.453 110.357,99.605 L 109.68,102.707 C 109.68,102.707 109.629,103.061 109.403,103.307 C 109.179,103.549 108.854,103.567 108.854,103.567 L 103.518,104.249 C 103.36,104.257 103.285,104.339 103.285,104.411 C 103.285,104.485 103.36,104.567 103.518,104.577 L 108.854,105.257 C 108.854,105.257 109.179,105.273 109.403,105.519 C 109.63,105.763 109.68,106.117 109.68,106.117 L 110.357,109.219 C 110.383,109.377 110.44,109.467 110.526,109.467 C 110.611,109.467 110.666,109.377 110.694,109.219 L 111.37,106.117 C 111.37,106.117 111.42,105.763 111.645,105.519 C 111.869,105.273 112.194,105.257 112.194,105.257 L 117.53,104.577 C 117.693,104.567 117.764,104.485 117.764,104.411 C 117.765,104.339 117.693,104.257 117.53,104.249 L 117.53,104.249 z "
   style="fill:#00afe1;fill-rule:evenodd"
   id="path17" />
	<path
   d="M 100.07,104.491 L 94.733,103.811 C 94.733,103.811 94.408,103.797 94.185,103.549 C 93.959,103.305 93.909,102.951 93.909,102.951 L 93.234,99.849 C 93.205,99.693 93.151,99.603 93.063,99.603 C 92.98,99.603 92.923,99.693 92.896,99.849 L 92.221,102.951 C 92.221,102.951 92.168,103.305 91.943,103.549 C 91.721,103.797 91.394,103.811 91.394,103.811 L 86.058,104.491 C 85.895,104.499 85.824,104.581 85.824,104.657 C 85.824,104.727 85.895,104.813 86.058,104.819 L 91.394,105.501 C 91.394,105.501 91.721,105.519 91.943,105.761 C 92.169,106.007 92.221,106.361 92.221,106.361 L 92.896,109.465 C 92.923,109.617 92.979,109.713 93.063,109.713 C 93.151,109.713 93.206,109.617 93.234,109.465 L 93.909,106.361 C 93.909,106.361 93.959,106.007 94.185,105.761 C 94.409,105.519 94.733,105.501 94.733,105.501 L 100.07,104.819 C 100.232,104.813 100.302,104.727 100.302,104.657 C 100.303,104.581 100.232,104.499 100.07,104.491 L 100.07,104.491 z "
   style="fill:#00afe1;fill-rule:evenodd"
   id="path19" />
	<path
   d="M 107.997,112.222 L 102.657,111.542 C 102.657,111.542 102.332,111.524 102.115,111.28 C 101.886,111.034 101.832,110.68 101.832,110.68 L 101.157,107.576 C 101.129,107.426 101.073,107.33 100.99,107.33 C 100.907,107.33 100.852,107.426 100.819,107.576 L 100.148,110.68 C 100.148,110.68 100.093,111.034 99.866,111.28 C 99.644,111.524 99.319,111.542 99.319,111.542 L 93.984,112.222 C 93.825,112.23 93.754,112.312 93.754,112.384 C 93.754,112.458 93.825,112.542 93.984,112.548 L 99.319,113.23 C 99.319,113.23 99.644,113.246 99.866,113.49 C 100.094,113.734 100.148,114.09 100.148,114.09 L 100.819,117.192 C 100.852,117.35 100.907,117.438 100.99,117.438 C 101.073,117.438 101.129,117.35 101.157,117.192 L 101.832,114.09 C 101.832,114.09 101.887,113.735 102.115,113.49 C 102.332,113.246 102.657,113.23 102.657,113.23 L 107.997,112.548 C 108.155,112.542 108.228,112.458 108.228,112.384 C 108.229,112.312 108.155,112.229 107.997,112.222 L 107.997,112.222 z "
   style="fill:#00afe1;fill-rule:evenodd"
   id="path21" />
	<path
   d="M 89.093,112.079 L 83.757,111.399 C 83.757,111.399 83.43,111.383 83.213,111.137 C 82.987,110.893 82.93,110.539 82.93,110.539 L 82.255,107.437 C 82.229,107.281 82.172,107.189 82.088,107.189 C 82.001,107.189 81.95,107.281 81.917,107.437 L 81.246,110.539 C 81.246,110.539 81.191,110.893 80.966,111.137 C 80.743,111.383 80.417,111.399 80.417,111.399 L 75.081,112.079 C 74.923,112.089 74.847,112.173 74.847,112.245 C 74.847,112.315 74.923,112.399 75.081,112.407 L 80.417,113.087 C 80.417,113.087 80.743,113.107 80.966,113.349 C 81.192,113.595 81.246,113.949 81.246,113.949 L 81.917,117.053 C 81.95,117.205 82,117.299 82.088,117.299 C 82.171,117.299 82.228,117.205 82.255,117.053 L 82.93,113.949 C 82.93,113.949 82.987,113.595 83.213,113.349 C 83.43,113.107 83.757,113.087 83.757,113.087 L 89.093,112.407 C 89.256,112.399 89.327,112.315 89.327,112.245 C 89.327,112.173 89.256,112.089 89.093,112.079 L 89.093,112.079 z "
   style="fill:#00afe1;fill-rule:evenodd"
   id="path23" />
	<path
   d="M 125.112,122.888 L 125.112,122.794 C 126.291,122.603 126.519,121.864 126.519,120.733 C 126.519,118.78 125.47,118.45 123.696,118.45 L 115.441,118.45 L 115.441,127.378 L 123.742,127.378 C 125.637,127.378 126.661,127.081 126.661,124.89 C 126.661,123.771 126.436,122.972 125.112,122.888 L 125.112,122.888 z M 118.126,120.399 L 123.08,120.399 C 123.746,120.422 123.83,120.626 123.83,121.161 C 123.83,121.876 123.629,122.018 122.799,122.018 L 118.126,122.018 L 118.126,120.399 L 118.126,120.399 z M 122.879,125.425 L 118.126,125.425 L 118.126,123.675 L 122.926,123.675 C 123.7,123.675 123.974,123.782 123.974,124.521 C 123.974,125.247 123.653,125.425 122.879,125.425 L 122.879,125.425 z "
   style="fill:#fadc22;fill-rule:evenodd"
   id="path25" />
	<path
   d="M 130.473,125.843 L 129.747,127.378 L 126.423,127.378 L 131.132,118.45 L 135.01,118.45 L 139.771,127.378 L 136.543,127.378 L 135.776,125.843 L 130.473,125.843 L 130.473,125.843 z M 133.14,120.231 L 133.11,120.231 L 131.319,124.104 L 134.98,124.104 L 133.14,120.231 L 133.14,120.231 z "
   style="fill:#fadc22;fill-rule:evenodd"
   id="path27" />
	<path
   d="M 97.833,125.497 C 98.953,125.497 99.323,125.425 99.323,124.675 C 99.323,123.902 99.191,123.913 98.073,123.843 L 94.329,123.806 C 92.121,123.779 90.538,123.663 90.538,121.103 C 90.538,118.54 92.279,118.374 94.613,118.374 L 98.437,118.374 C 100.39,118.374 102.057,118.413 102.057,120.876 L 102.057,121.243 L 99.168,121.243 C 99.168,120.327 98.786,120.327 97.833,120.327 L 94.916,120.327 C 93.629,120.327 93.521,120.589 93.521,121.089 C 93.521,121.806 93.866,121.829 94.499,121.876 L 99.008,121.948 C 101.632,121.999 102.309,122.471 102.309,124.52 C 102.309,125.997 102.369,127.45 98.437,127.45 L 94.312,127.45 C 92.037,127.45 90.525,127.403 90.525,124.471 L 93.415,124.471 C 93.415,125.401 93.748,125.496 94.915,125.496 L 97.833,125.496 L 97.833,125.497 z "
   style="fill:#fadc22;fill-rule:evenodd"
   id="path29" />
	<path
   d="M 110.754,127.45 C 113.374,127.45 114.494,126.784 114.494,124.401 L 114.494,118.45 L 111.808,118.45 L 111.808,124.247 C 111.808,125.296 111.462,125.378 110.45,125.378 L 107.05,125.378 C 106.048,125.378 105.477,125.366 105.477,124.355 L 105.477,118.451 L 102.793,118.451 L 102.793,124.402 C 102.793,126.547 103.174,127.451 106.747,127.451 L 110.754,127.451 L 110.754,127.45 z "
   style="fill:#fadc22;fill-rule:evenodd"
   id="path31" />
	<path
   d="M 159.938,127.45 C 162.559,127.45 163.678,126.784 163.678,124.401 L 163.678,118.45 L 160.991,118.45 L 160.991,124.247 C 160.991,125.296 160.645,125.378 159.633,125.378 L 156.235,125.378 C 155.235,125.378 154.662,125.366 154.662,124.355 L 154.662,118.451 L 151.979,118.451 L 151.979,124.402 C 151.979,126.547 152.361,127.451 155.932,127.451 L 159.938,127.451 L 159.938,127.45 z "
   style="fill:#fadc22;fill-rule:evenodd"
   id="path33" />
	<path
   d="M 149.601,123.997 L 149.601,123.901 C 151.292,123.508 151.292,122.637 151.292,121.151 C 151.292,118.922 150.279,118.483 148.219,118.45 L 140.112,118.45 L 140.112,127.378 L 142.796,127.378 L 142.796,125.009 L 147.544,125.009 C 148.26,125.009 148.547,125.462 148.523,126.128 L 148.523,127.378 L 151.211,127.378 L 151.211,125.579 C 151.209,124.567 150.578,124.032 149.601,123.997 L 149.601,123.997 z M 147.543,122.937 L 142.795,122.937 L 142.795,120.519 L 147.543,120.519 C 148.33,120.519 148.533,120.746 148.533,121.544 C 148.533,122.556 148.567,122.937 147.543,122.937 L 147.543,122.937 z "
   style="fill:#fadc22;fill-rule:evenodd"
   id="path35" />
	<polygon
   points="96.338,129.097 97.6,129.097 96.555,131.821 94.733,131.821 94.091,130.11 94.042,130.11 93.355,131.821 91.555,131.821 90.534,129.097 91.811,129.097 92.49,131.194 92.538,131.194 93.423,129.097 94.733,129.097 95.58,131.194 95.622,131.194 96.338,129.097 "
   style="fill:#fadc22;fill-rule:evenodd"
   id="polygon37" />
	<path
   d="M 99.939,131.218 C 99.282,131.218 99.069,131.177 99.053,130.765 L 99.053,130.146 C 99.069,129.742 99.282,129.703 99.939,129.703 C 100.593,129.703 100.828,129.742 100.828,130.146 L 100.828,130.765 C 100.828,131.177 100.594,131.218 99.939,131.218 L 99.939,131.218 z M 99.939,131.847 C 101.215,131.847 102.127,131.687 102.127,130.847 L 102.127,130.07 C 102.127,129.228 101.216,129.07 99.939,129.07 C 98.661,129.07 97.754,129.228 97.754,130.07 L 97.754,130.847 C 97.754,131.687 98.661,131.847 99.939,131.847 L 99.939,131.847 z "
   style="fill:#fadc22;fill-rule:evenodd"
   id="path39" />
	<path
   d="M 103.948,130.464 L 103.948,129.724 L 104.926,129.724 C 105.343,129.724 105.448,129.796 105.448,130.04 C 105.448,130.347 105.464,130.464 104.926,130.464 L 103.948,130.464 L 103.948,130.464 z M 102.689,131.821 L 103.948,131.821 L 103.948,131.091 L 104.929,131.091 C 105.309,131.091 105.459,131.232 105.448,131.437 L 105.448,131.822 L 106.708,131.822 L 106.708,131.269 C 106.708,130.96 106.371,130.796 105.858,130.787 L 105.858,130.758 C 106.747,130.641 106.747,130.375 106.747,129.918 C 106.747,129.242 106.21,129.107 105.119,129.098 L 102.689,129.098 L 102.689,131.821 L 102.689,131.821 z "
   style="fill:#fadc22;fill-rule:evenodd"
   id="path41" />
	<polygon
   points="108.809,131.192 110.777,131.192 110.777,131.821 107.55,131.821 107.55,129.097 108.809,129.097 108.809,131.192 "
   style="fill:#fadc22;fill-rule:evenodd"
   id="polygon43" />
	<path
   d="M 112.728,129.724 L 113.824,129.724 C 114.262,129.724 114.458,129.798 114.458,130.152 L 114.458,130.726 C 114.458,131.013 114.287,131.193 113.824,131.193 L 112.728,131.193 L 112.728,129.724 L 112.728,129.724 z M 111.463,131.821 L 114.025,131.821 C 115.339,131.821 115.756,131.473 115.756,130.725 L 115.756,130.151 C 115.756,129.378 115.169,129.096 113.854,129.096 L 111.463,129.096 L 111.463,131.821 L 111.463,131.821 z "
   style="fill:#fadc22;fill-rule:evenodd"
   id="path45" />
	<path
   d="M 121.039,130.464 L 121.039,129.724 L 122.02,129.724 C 122.433,129.724 122.541,129.796 122.541,130.04 C 122.541,130.347 122.56,130.464 122.02,130.464 L 121.039,130.464 L 121.039,130.464 z M 119.781,131.821 L 121.039,131.821 L 121.039,131.091 L 122.024,131.091 C 122.401,131.091 122.552,131.232 122.541,131.437 L 122.541,131.822 L 123.804,131.822 L 123.804,131.269 C 123.804,130.96 123.47,130.796 122.95,130.787 L 122.95,130.758 C 123.843,130.641 123.843,130.375 123.843,129.918 C 123.843,129.242 123.309,129.107 122.215,129.098 L 119.782,129.098 L 119.782,131.821 L 119.781,131.821 z "
   style="fill:#fadc22;fill-rule:evenodd"
   id="path47" />
	<path
   d="M 127.439,130.817 L 126.269,130.817 L 126.84,129.639 L 126.852,129.639 L 127.439,130.817 L 127.439,130.817 z M 127.689,131.349 L 127.94,131.822 L 129.222,131.822 L 127.784,129.097 L 125.87,129.097 L 124.449,131.822 L 125.763,131.822 L 125.993,131.349 L 127.689,131.349 L 127.689,131.349 z "
   style="fill:#fadc22;fill-rule:evenodd"
   id="path49" />
	<polygon
   points="130.989,131.192 132.963,131.192 132.963,131.821 129.73,131.821 129.73,129.097 130.989,129.097 130.989,131.192 "
   style="fill:#fadc22;fill-rule:evenodd"
   id="polygon51" />
	<polygon
   points="135.158,131.192 137.13,131.192 137.13,131.821 133.902,131.821 133.902,129.097 135.158,129.097 135.158,131.192 "
   style="fill:#fadc22;fill-rule:evenodd"
   id="polygon53" />
	<polygon
   points="139.656,130.864 139.656,131.821 138.396,131.821 138.396,130.864 136.718,129.097 138.162,129.097 139.004,130.146 139.053,130.146 139.921,129.097 141.382,129.097 139.656,130.864 "
   style="fill:#fadc22;fill-rule:evenodd"
   id="polygon55" />
	<polygon
   points="146.492,131.821 145.234,131.821 145.234,129.724 144.022,129.724 144.022,129.097 147.763,129.097 147.763,129.724 146.492,129.724 146.492,131.821 "
   style="fill:#fadc22;fill-rule:evenodd"
   id="polygon57" />
	<polygon
   points="149.667,130.19 151.687,130.19 151.687,130.694 149.667,130.694 149.667,131.228 151.862,131.228 151.862,131.821 148.409,131.821 148.409,129.097 151.816,129.097 151.816,129.694 149.667,129.694 149.667,130.19 "
   style="fill:#fadc22;fill-rule:evenodd"
   id="polygon59" />
	<path
   d="M 155.489,130.817 L 154.316,130.817 L 154.889,129.639 L 154.906,129.639 L 155.489,130.817 L 155.489,130.817 z M 155.743,131.349 L 155.989,131.822 L 157.272,131.822 L 155.834,129.097 L 153.919,129.097 L 152.503,131.822 L 153.812,131.822 L 154.047,131.349 L 155.743,131.349 L 155.743,131.349 z "
   style="fill:#fadc22;fill-rule:evenodd"
   id="path61" />
	<polygon
   points="158.871,131.821 157.618,131.821 157.618,129.097 159.609,129.097 160.51,130.806 160.555,130.806 161.413,129.097 163.458,129.097 163.458,131.821 162.197,131.821 162.325,129.724 162.28,129.724 161.083,131.821 159.99,131.821 158.784,129.724 158.743,129.724 158.871,131.821 "
   style="fill:#fadc22;fill-rule:evenodd"
   id="polygon63" />
	<path
   d="M 91.751,96.309 L 78.063,94.565 C 78.063,94.565 77.234,94.522 76.661,93.897 C 76.085,93.267 75.939,92.36 75.939,92.36 L 74.212,84.4 C 74.14,84.005 73.998,83.768 73.782,83.768 C 73.565,83.768 73.423,84.005 73.349,84.4 L 71.623,92.36 C 71.623,92.358 71.48,93.267 70.903,93.897 C 70.332,94.522 69.502,94.565 69.502,94.565 L 55.81,96.309 C 55.4,96.331 55.211,96.544 55.211,96.732 C 55.211,96.92 55.4,97.134 55.81,97.152 L 69.502,98.895 C 69.502,98.895 70.332,98.942 70.903,99.565 C 71.48,100.194 71.623,101.102 71.623,101.102 L 73.349,109.063 C 73.422,109.458 73.564,109.696 73.782,109.696 C 73.998,109.696 74.14,109.458 74.212,109.063 L 75.939,101.102 C 75.939,101.102 76.085,100.194 76.661,99.565 C 77.234,98.942 78.063,98.895 78.063,98.895 L 91.751,97.152 C 92.164,97.133 92.355,96.92 92.355,96.732 C 92.355,96.544 92.165,96.332 91.751,96.309 L 91.751,96.309 z "
   style="fill:#fadc22;fill-rule:evenodd"
   id="path65" />
	<path
   d="M 112.059,93.963 L 106.723,93.284 C 106.723,93.284 106.398,93.266 106.176,93.022 C 105.95,92.776 105.894,92.425 105.894,92.425 L 105.223,89.321 C 105.19,89.166 105.139,89.072 105.052,89.072 C 104.969,89.072 104.913,89.165 104.885,89.321 L 104.21,92.425 C 104.21,92.425 104.155,92.776 103.928,93.022 C 103.71,93.266 103.385,93.284 103.385,93.284 L 98.049,93.963 C 97.887,93.971 97.816,94.055 97.816,94.128 C 97.816,94.201 97.887,94.284 98.049,94.293 L 103.385,94.972 C 103.385,94.972 103.71,94.988 103.928,95.234 C 104.156,95.48 104.21,95.834 104.21,95.834 L 104.885,98.935 C 104.913,99.087 104.969,99.179 105.052,99.179 C 105.139,99.179 105.19,99.087 105.223,98.935 L 105.894,95.834 C 105.894,95.834 105.951,95.48 106.176,95.234 C 106.398,94.988 106.723,94.972 106.723,94.972 L 112.059,94.293 C 112.219,94.285 112.29,94.202 112.29,94.128 C 112.29,94.054 112.219,93.971 112.059,93.963 L 112.059,93.963 z "
   style="fill:#fadc22;fill-rule:evenodd"
   id="path67" />
	<path
   d="M 116.609,103.591 L 111.274,102.911 C 111.274,102.911 110.95,102.891 110.724,102.649 C 110.503,102.403 110.442,102.049 110.442,102.049 L 109.771,98.945 C 109.745,98.795 109.688,98.699 109.604,98.699 C 109.521,98.699 109.462,98.795 109.434,98.945 L 108.763,102.049 C 108.763,102.049 108.704,102.403 108.482,102.649 C 108.258,102.891 107.938,102.911 107.938,102.911 L 102.597,103.591 C 102.439,103.599 102.365,103.681 102.365,103.753 C 102.365,103.827 102.439,103.911 102.597,103.917 L 107.938,104.599 C 107.938,104.599 108.258,104.615 108.482,104.861 C 108.705,105.105 108.763,105.457 108.763,105.457 L 109.434,108.561 C 109.462,108.715 109.521,108.807 109.604,108.807 C 109.688,108.807 109.745,108.715 109.771,108.561 L 110.442,105.457 C 110.442,105.457 110.504,105.105 110.724,104.861 C 110.95,104.615 111.274,104.599 111.274,104.599 L 116.609,103.917 C 116.767,103.911 116.843,103.827 116.843,103.753 C 116.844,103.681 116.768,103.599 116.609,103.591 L 116.609,103.591 z "
   style="fill:#fadc22;fill-rule:evenodd"
   id="path69" />
	<path
   d="M 99.148,103.835 L 93.812,103.153 C 93.812,103.153 93.487,103.137 93.264,102.891 C 93.042,102.645 92.983,102.293 92.983,102.293 L 92.313,99.189 C 92.284,99.035 92.23,98.945 92.146,98.945 C 92.063,98.945 92.002,99.035 91.975,99.189 L 91.302,102.293 C 91.302,102.293 91.243,102.645 91.022,102.891 C 90.797,103.137 90.473,103.153 90.473,103.153 L 85.138,103.835 C 84.979,103.841 84.904,103.923 84.904,103.997 C 84.904,104.069 84.979,104.153 85.138,104.161 L 90.473,104.841 C 90.473,104.841 90.798,104.861 91.022,105.103 C 91.243,105.349 91.302,105.703 91.302,105.703 L 91.975,108.803 C 92.002,108.959 92.063,109.053 92.146,109.053 C 92.229,109.053 92.284,108.959 92.313,108.803 L 92.983,105.703 C 92.983,105.703 93.042,105.349 93.264,105.103 C 93.488,104.861 93.812,104.841 93.812,104.841 L 99.148,104.161 C 99.307,104.153 99.382,104.069 99.382,103.997 C 99.383,103.923 99.308,103.841 99.148,103.835 L 99.148,103.835 z "
   style="fill:#fadc22;fill-rule:evenodd"
   id="path71" />
	<path
   d="M 107.072,111.562 L 101.736,110.882 C 101.736,110.882 101.415,110.862 101.189,110.62 C 100.965,110.376 100.911,110.02 100.911,110.02 L 100.236,106.918 C 100.208,106.764 100.152,106.67 100.07,106.67 C 99.986,106.67 99.931,106.764 99.898,106.918 L 99.227,110.02 C 99.227,110.02 99.172,110.375 98.945,110.62 C 98.723,110.862 98.403,110.882 98.403,110.882 L 93.066,111.562 C 92.904,111.572 92.826,111.654 92.826,111.726 C 92.826,111.798 92.904,111.882 93.066,111.892 L 98.403,112.572 C 98.403,112.572 98.723,112.588 98.945,112.834 C 99.173,113.078 99.227,113.432 99.227,113.432 L 99.898,116.534 C 99.931,116.688 99.986,116.78 100.07,116.78 C 100.152,116.78 100.208,116.688 100.236,116.534 L 100.911,113.432 C 100.911,113.432 100.966,113.078 101.189,112.834 C 101.415,112.588 101.736,112.572 101.736,112.572 L 107.072,111.892 C 107.234,111.882 107.31,111.798 107.31,111.726 C 107.31,111.654 107.234,111.571 107.072,111.562 L 107.072,111.562 z "
   style="fill:#fadc22;fill-rule:evenodd"
   id="path73" />
	<path
   d="M 88.17,111.421 L 82.835,110.741 C 82.835,110.739 82.509,110.725 82.288,110.481 C 82.066,110.233 82.009,109.881 82.009,109.881 L 81.334,106.776 C 81.306,106.622 81.251,106.532 81.167,106.532 C 81.083,106.532 81.025,106.622 80.997,106.776 L 80.326,109.881 C 80.326,109.881 80.271,110.233 80.044,110.481 C 79.822,110.725 79.497,110.741 79.497,110.741 L 74.162,111.421 C 74.003,111.427 73.928,111.509 73.928,111.587 C 73.928,111.657 74.003,111.741 74.162,111.749 L 79.497,112.429 C 79.497,112.429 79.822,112.447 80.044,112.691 C 80.272,112.935 80.326,113.289 80.326,113.289 L 80.997,116.394 C 81.025,116.544 81.084,116.64 81.167,116.64 C 81.25,116.64 81.305,116.544 81.334,116.394 L 82.009,113.289 C 82.009,113.289 82.066,112.935 82.288,112.691 C 82.509,112.447 82.835,112.429 82.835,112.429 L 88.17,111.749 C 88.335,111.741 88.406,111.657 88.406,111.587 C 88.406,111.509 88.335,111.427 88.17,111.421 L 88.17,111.421 z "
   style="fill:#fadc22;fill-rule:evenodd"
   id="path75" />
	<path
   d="M 91.193,83.389 C 91.193,83.389 130.274,68.581 180.246,65.715 C 180.679,65.691 180.461,65.731 180.386,65.839 C 180.386,65.839 143.577,70.65 106.962,87.058 C 106.962,87.058 99.344,84.5 91.193,83.389 L 91.193,83.389 z "
   style="fill:#fadc22;fill-rule:evenodd"
   id="path77" />
	<path
   d="M 116.036,92.093 C 116.036,92.093 141.791,78.964 174.117,73.063 C 174.284,73.035 174.318,73.063 174.288,73.155 C 174.288,73.155 150.625,79.46 121.234,97.672 C 121.234,97.671 118.447,94.046 116.036,92.093 L 116.036,92.093 z "
   style="fill:#fadc22;fill-rule:evenodd"
   id="path79" />
	<path
   d="M 88.394,127.429 C 88.394,127.429 87.936,126.882 87.724,126.421 C 87.513,125.966 87.39,125.448 87.39,125.448 C 87.39,125.448 43.459,123.893 43.459,104.218 C 43.459,87.058 84.796,76.555 105.99,71.368 C 134.448,64.403 176.954,61.35 184.253,60.865 L 184.253,60.605 C 177.557,60.425 147.16,60.176 97.572,67.057 C 54.521,73.035 13.052,89.58 13.052,105.111 C 13.052,119.586 43.87,124.218 54.034,125.437 C 72.004,127.595 88.394,127.429 88.394,127.429 L 88.394,127.429 z "
   style="fill:#fadc22;fill-rule:evenodd"
   id="path81" />
</g>
</svg>